<?xml version="1.0"?>
<svg xmlns="http://www.w3.org/2000/svg" xmlns:xlink="http://www.w3.org/1999/xlink" xmlns:svgjs="http://svgjs.com/svgjs" version="1.1" width="512" height="512" x="0" y="0" viewBox="0 0 512 512" style="enable-background:new 0 0 512 512" xml:space="preserve" class=""><g><g xmlns="http://www.w3.org/2000/svg"><path d="m496.369 314.21c-.298-20.418-17.125-37.03-37.509-37.03h-55.322c-10.305-62.196-24.124-109.431-34.055-138.442-5.57-16.267-20.875-27.196-38.083-27.196h-12.636v-9.125c.001-56.473-45.943-102.417-102.416-102.417s-102.418 45.944-102.418 102.417v9.123h-12.64c-17.2 0-32.501 10.93-38.074 27.197-3.732 10.882-7.432 22.715-10.996 35.17-1.14 3.982 1.165 8.134 5.147 9.274.689.197 1.384.292 2.067.292 3.262 0 6.264-2.146 7.207-5.438 3.494-12.208 7.115-23.792 10.765-34.433 3.497-10.205 13.095-17.061 23.885-17.061h12.64v69.989c0 13.077 10.639 23.716 23.716 23.716s23.716-10.639 23.716-23.716v-69.987h109.972v69.987c0 13.077 10.639 23.716 23.716 23.716s23.716-10.639 23.716-23.716v-69.987h12.636c10.797 0 20.398 6.854 23.891 17.055 7.89 23.047 22.363 70.294 33.033 133.583h-193.427c-20.377 0-37.208 16.609-37.519 37.029-1.211 82.31 23.385 145.962 38.155 176.58 1.069 2.215 2.359 4.284 3.814 6.21h-139.24c-15.946 0-28.765-12.521-29.182-28.507-2.926-111.232 13.644-203.733 28.061-261.744.999-4.02-1.45-8.088-5.47-9.087-4.017-.997-8.088 1.45-9.087 5.47-14.64 58.913-31.468 152.841-28.499 265.754.631 24.176 20.036 43.114 44.177 43.114h364.32c14.311 0 27.575-8.326 33.797-21.215 1.448-3.006 2.915-6.18 4.358-9.433 1.681-3.786-.026-8.217-3.812-9.897-3.787-1.681-8.218.026-9.897 3.812-1.381 3.111-2.781 6.141-4.159 9.002-3.734 7.734-11.697 12.731-20.287 12.731h-195.11c-8.584 0-16.543-4.997-20.275-12.729-14.194-29.424-37.832-90.616-36.666-169.837.187-12.271 10.29-22.254 22.521-22.254h263.96c12.233 0 22.332 9.981 22.511 22.251.843 56.551-11.336 103.815-21.702 133.506-1.365 3.911.698 8.188 4.609 9.553 3.912 1.367 8.188-.698 9.553-4.609 15.438-44.219 23.231-92.173 22.538-138.671zm-335.007-202.668v-9.125c0-30.319 24.667-54.986 54.986-54.986s54.986 24.667 54.986 54.986v9.125zm142.403 84.987c0 4.806-3.91 8.716-8.716 8.716s-8.716-3.91-8.716-8.716v-94.112c0-38.59-31.396-69.986-69.986-69.986s-69.986 31.396-69.986 69.986v94.112c0 4.806-3.91 8.716-8.716 8.716s-8.716-3.91-8.716-8.716v-94.112c.001-48.202 39.216-87.417 87.419-87.417s87.417 39.215 87.417 87.417z" fill="#007bff" data-original="#000000" style=""/><path d="m278.465 308.499c-11.317 0-20.525 9.208-20.525 20.525v33.601c0 40.779 33.176 73.956 73.956 73.956 40.779 0 73.955-33.176 73.955-73.956v-33.601c0-11.317-9.207-20.525-20.524-20.525s-20.525 9.208-20.525 20.525v33.601c0 18.145-14.761 32.906-32.906 32.906s-32.906-14.761-32.906-32.906v-33.601c0-11.318-9.207-20.525-20.525-20.525zm53.431 102.031c26.416 0 47.906-21.49 47.906-47.906v-33.601c0-3.046 2.479-5.525 5.525-5.525s5.524 2.479 5.524 5.525v33.601c0 32.508-26.447 58.956-58.955 58.956s-58.956-26.447-58.956-58.956v-33.601c0-3.046 2.479-5.525 5.525-5.525s5.525 2.479 5.525 5.525v33.601c0 26.416 21.49 47.906 47.906 47.906z" fill="#007bff" data-original="#000000" style=""/></g></g></svg>
